ffmpeg started on 2025-06-06 at 19:01:03
Report written to "D:\Convert\FFMetrics\reports\ssim_report-6.txt"
Log level: 32
Command line:
ffmpeg -hide_banner -nostdin -i "G:\\\xc0\xed\xe8\xec\xe5\\\xce\xed\xe3\xee\xe8\xed\xe3\xe8\\!_36_\xce\xf1\xe5\xed\xfc_2024\\DreamCast\\\xcf\xf3\xed\xe8\xf0\xf3 - \xec\xe8\xeb\xe0\xff \xf1\xeb\xe8\xe7\xfc\\[DC] Puniru wa Kawaii Slime - 10_Telegram_HEVC.mkv" -i "G:\\\xc0\xed\xe8\xec\xe5\\\xce\xed\xe3\xee\xe8\xed\xe3\xe8\\!_36_\xce\xf1\xe5\xed\xfc_2024\\DreamCast\\\xcf\xf3\xed\xe8\xf0\xf3 - \xec\xe8\xeb\xe0\xff \xf1\xeb\xe8\xe7\xfc\\[DC] Puniru wa Kawaii Slime - 10_Telegram.mp4" -lavfi "[0:v]settb=AVTB,setpts=PTS-STARTPTS,format=pix_fmts=yuv420p10,fps=24000/1001,scale=1920:1080:flags=bicubic[main];[1:v]settb=AVTB,setpts=PTS-STARTPTS,format=pix_fmts=yuv420p,fps=24000/1001,scale=1920:1080:flags=bicubic[ref];[main][ref]ssim=eof_action=endall:stats_file='D\\:/Convert/FFMetrics/logs/ssim_logfile-6.txt'" -f null -
Input #0, matroska,webm, from 'G:\Аниме\Онгоинги\!_36_Осень_2024\DreamCast\Пуниру - милая слизь\[DC] Puniru wa Kawaii Slime - 10_Telegram_HEVC.mkv':
  Metadata:
    COMPATIBLE_BRANDS: isomiso2avc1mp41
    MAJOR_BRAND     : isom
    MINOR_VERSION   : 512
    ENCODER         : Lavf61.7.100
  Duration: 00:23:56.76, start: -0.021000, bitrate: 1283 kb/s
  Stream #0:0: Video: hevc (Main 10), yuv420p10le(tv, bt709, progressive), 1920x1080 [SAR 1:1 DAR 16:9], 23.98 fps, 23.98 tbr, 1k tbn (default)
      Metadata:
        HANDLER_NAME    : VideoHandler
        VENDOR_ID       : [0][0][0][0]
        ENCODER         : Lavc61.19.100 libx265
        BPS             : 1084912
        DURATION        : 00:23:56.601708333
        NUMBER_OF_FRAMES: 34444
        NUMBER_OF_BYTES : 194823209
        _STATISTICS_WRITING_APP: mkvpropedit v66.0.0 ('Josie') 64-bit
        _STATISTICS_WRITING_DATE_UTC: 2025-06-03 13:33:30
        _STATISTICS_TAGS: BPS DURATION NUMBER_OF_FRAMES NUMBER_OF_BYTES
  Stream #0:1: Audio: aac (LC), 48000 Hz, stereo, fltp (default)
      Metadata:
        HANDLER_NAME    : SoundHandler
        VENDOR_ID       : [0][0][0][0]
        ENCODER         : Lavc61.19.100 aac
        BPS             : 194330
        DURATION        : 00:23:56.757000000
        NUMBER_OF_FRAMES: 67349
        NUMBER_OF_BYTES : 34900802
        _STATISTICS_WRITING_APP: mkvpropedit v66.0.0 ('Josie') 64-bit
        _STATISTICS_WRITING_DATE_UTC: 2025-06-03 13:33:30
        _STATISTICS_TAGS: BPS DURATION NUMBER_OF_FRAMES NUMBER_OF_BYTES
Input #1, mov,mp4,m4a,3gp,3g2,mj2, from 'G:\Аниме\Онгоинги\!_36_Осень_2024\DreamCast\Пуниру - милая слизь\[DC] Puniru wa Kawaii Slime - 10_Telegram.mp4':
  Metadata:
    major_brand     : isom
    minor_version   : 512
    compatible_brands: isomiso2avc1mp41
    encoder         : Lavf61.1.100
  Duration: 00:23:56.73, start: 0.000000, bitrate: 3559 kb/s
  Stream #1:0[0x1](und): Video: h264 (High) (avc1 / 0x31637661), yuv420p(tv, bt709, progressive), 1920x1080 [SAR 1:1 DAR 16:9], 3411 kb/s, 23.98 fps, 23.98 tbr, 24k tbn (default)
      Metadata:
        handler_name    : VideoHandler
        vendor_id       : [0][0][0][0]
        encoder         : Lavc61.3.100 h264_qsv
  Stream #1:1[0x2](und): Audio: aac (HE-AACv2) (mp4a / 0x6134706D), 48000 Hz, stereo, fltp, 144 kb/s (default)
      Metadata:
        handler_name    : SoundHandler
        vendor_id       : [0][0][0][0]
Stream mapping:
  Stream #0:0 (hevc) -> settb:default
  Stream #1:0 (h264) -> settb:default
  ssim:default -> Stream #0:0 (wrapped_avframe)
  Stream #0:1 -> #0:1 (aac (native) -> pcm_s16le (native))
Output #0, null, to 'pipe:':
  Metadata:
    COMPATIBLE_BRANDS: isomiso2avc1mp41
    MAJOR_BRAND     : isom
    MINOR_VERSION   : 512
    encoder         : Lavf61.7.100
  Stream #0:0: Video: wrapped_avframe, yuv420p10le(tv, bt709, progressive), 1920x1080 [SAR 1:1 DAR 16:9], q=2-31, 200 kb/s, 23.98 fps, 23.98 tbn
      Metadata:
        encoder         : Lavc61.19.100 wrapped_avframe
  Stream #0:1: Audio: pcm_s16le, 48000 Hz, stereo, s16, 1536 kb/s (default)
      Metadata:
        HANDLER_NAME    : SoundHandler
        VENDOR_ID       : [0][0][0][0]
        _STATISTICS_TAGS: BPS DURATION NUMBER_OF_FRAMES NUMBER_OF_BYTES
        BPS             : 194330
        DURATION        : 00:23:56.757000000
        NUMBER_OF_FRAMES: 67349
        NUMBER_OF_BYTES : 34900802
        _STATISTICS_WRITING_APP: mkvpropedit v66.0.0 ('Josie') 64-bit
        _STATISTICS_WRITING_DATE_UTC: 2025-06-03 13:33:30
        encoder         : Lavc61.19.100 pcm_s16le
frame=  159 fps=0.0 q=-0.0 size=N/A time=00:00:06.63 bitrate=N/A speed=  13x    frame=  453 fps=439 q=-0.0 size=N/A time=00:00:18.89 bitrate=N/A speed=18.3x    frame=  727 fps=471 q=-0.0 size=N/A time=00:00:30.32 bitrate=N/A speed=19.6x    frame= 1011 fps=493 q=-0.0 size=N/A time=00:00:42.16 bitrate=N/A speed=20.6x    frame= 1263 fps=490 q=-0.0 size=N/A time=00:00:52.67 bitrate=N/A speed=20.5x    frame= 1492 fps=482 q=-0.0 size=N/A time=00:01:02.22 bitrate=N/A speed=20.1x    frame= 1673 fps=465 q=-0.0 size=N/A time=00:01:09.77 bitrate=N/A speed=19.4x    frame= 1874 fps=455 q=-0.0 size=N/A time=00:01:18.16 bitrate=N/A speed=  19x    frame= 2087 fps=450 q=-0.0 size=N/A time=00:01:27.04 bitrate=N/A speed=18.8x    frame= 2325 fps=452 q=-0.0 size=N/A time=00:01:36.97 bitrate=N/A speed=18.9x    frame= 2518 fps=444 q=-0.0 size=N/A time=00:01:45.02 bitrate=N/A speed=18.5x    frame= 2671 fps=432 q=-0.0 size=N/A time=00:01:51.40 bitrate=N/A speed=  18x    frame= 2836 fps=423 q=-0.0 size=N/A time=00:01:58.28 bitrate=N/A speed=17.7x    frame= 3031 fps=420 q=-0.0 size=N/A time=00:02:06.41 bitrate=N/A speed=17.5x    frame= 3236 fps=419 q=-0.0 size=N/A time=00:02:14.96 bitrate=N/A speed=17.5x    frame= 3464 fps=420 q=-0.0 size=N/A time=00:02:24.47 bitrate=N/A speed=17.5x    frame= 3663 fps=418 q=-0.0 size=N/A time=00:02:32.77 bitrate=N/A speed=17.5x    frame= 3913 fps=422 q=-0.0 size=N/A time=00:02:43.20 bitrate=N/A speed=17.6x    frame= 4161 fps=425 q=-0.0 size=N/A time=00:02:53.54 bitrate=N/A speed=17.7x    frame= 4428 fps=430 q=-0.0 size=N/A time=00:03:04.68 bitrate=N/A speed=17.9x    frame= 4695 fps=434 q=-0.0 size=N/A time=00:03:15.82 bitrate=N/A speed=18.1x    frame= 4926 fps=435 q=-0.0 size=N/A time=00:03:25.45 bitrate=N/A speed=18.1x    frame= 5167 fps=436 q=-0.0 size=N/A time=00:03:35.50 bitrate=N/A speed=18.2x    frame= 5399 fps=437 q=-0.0 size=N/A time=00:03:45.18 bitrate=N/A speed=18.2x    frame= 5648 fps=438 q=-0.0 size=N/A time=00:03:55.56 bitrate=N/A speed=18.3x    frame= 5884 fps=439 q=-0.0 size=N/A time=00:04:05.41 bitrate=N/A speed=18.3x    frame= 6152 fps=442 q=-0.0 size=N/A time=00:04:16.58 bitrate=N/A speed=18.4x    frame= 6430 fps=446 q=-0.0 size=N/A time=00:04:28.18 bitrate=N/A speed=18.6x    frame= 6699 fps=448 q=-0.0 size=N/A time=00:04:39.40 bitrate=N/A speed=18.7x    frame= 6957 fps=450 q=-0.0 size=N/A time=00:04:50.16 bitrate=N/A speed=18.8x    frame= 7221 fps=452 q=-0.0 size=N/A time=00:05:01.17 bitrate=N/A speed=18.8x    frame= 7469 fps=453 q=-0.0 size=N/A time=00:05:11.51 bitrate=N/A speed=18.9x    frame= 7684 fps=452 q=-0.0 size=N/A time=00:05:20.48 bitrate=N/A speed=18.8x    frame= 7915 fps=452 q=-0.0 size=N/A time=00:05:30.12 bitrate=N/A speed=18.8x    frame= 8207 fps=455 q=-0.0 size=N/A time=00:05:42.30 bitrate=N/A speed=  19x    frame= 8442 fps=455 q=-0.0 size=N/A time=00:05:52.10 bitrate=N/A speed=  19x    frame= 8729 fps=458 q=-0.0 size=N/A time=00:06:04.07 bitrate=N/A speed=19.1x    frame= 9013 fps=460 q=-0.0 size=N/A time=00:06:15.91 bitrate=N/A speed=19.2x    frame= 9297 fps=462 q=-0.0 size=N/A time=00:06:27.76 bitrate=N/A speed=19.3x    frame= 9570 fps=464 q=-0.0 size=N/A time=00:06:39.14 bitrate=N/A speed=19.4x    frame= 9836 fps=465 q=-0.0 size=N/A time=00:06:50.24 bitrate=N/A speed=19.4x    frame=10121 fps=467 q=-0.0 size=N/A time=00:07:02.13 bitrate=N/A speed=19.5x    frame=10393 fps=469 q=-0.0 size=N/A time=00:07:13.47 bitrate=N/A speed=19.6x    frame=10651 fps=470 q=-0.0 size=N/A time=00:07:24.23 bitrate=N/A speed=19.6x    frame=10931 fps=471 q=-0.0 size=N/A time=00:07:35.91 bitrate=N/A speed=19.7x    frame=11195 fps=472 q=-0.0 size=N/A time=00:07:46.92 bitrate=N/A speed=19.7x    frame=11456 fps=473 q=-0.0 size=N/A time=00:07:57.81 bitrate=N/A speed=19.7x    frame=11713 fps=473 q=-0.0 size=N/A time=00:08:08.52 bitrate=N/A speed=19.7x    frame=11942 fps=473 q=-0.0 size=N/A time=00:08:18.08 bitrate=N/A speed=19.7x    frame=12192 fps=473 q=-0.0 size=N/A time=00:08:28.50 bitrate=N/A speed=19.7x    frame=12463 fps=474 q=-0.0 size=N/A time=00:08:39.81 bitrate=N/A speed=19.8x    frame=12733 fps=475 q=-0.0 size=N/A time=00:08:51.07 bitrate=N/A speed=19.8x    frame=12990 fps=475 q=-0.0 size=N/A time=00:09:01.79 bitrate=N/A speed=19.8x    frame=13162 fps=473 q=-0.0 size=N/A time=00:09:08.96 bitrate=N/A speed=19.7x    frame=13377 fps=472 q=-0.0 size=N/A time=00:09:17.93 bitrate=N/A speed=19.7x    frame=13657 fps=473 q=-0.0 size=N/A time=00:09:29.61 bitrate=N/A speed=19.7x    frame=13909 fps=473 q=-0.0 size=N/A time=00:09:40.12 bitrate=N/A speed=19.7x    frame=14197 fps=475 q=-0.0 size=N/A time=00:09:52.13 bitrate=N/A speed=19.8x    frame=14409 fps=474 q=-0.0 size=N/A time=00:10:00.97 bitrate=N/A speed=19.8x    frame=14638 fps=473 q=-0.0 size=N/A time=00:10:10.52 bitrate=N/A speed=19.7x    frame=14871 fps=473 q=-0.0 size=N/A time=00:10:20.24 bitrate=N/A speed=19.7x    frame=15066 fps=471 q=-0.0 size=N/A time=00:10:28.37 bitrate=N/A speed=19.7x    frame=15333 fps=472 q=-0.0 size=N/A time=00:10:39.51 bitrate=N/A speed=19.7x    frame=15570 fps=472 q=-0.0 size=N/A time=00:10:49.39 bitrate=N/A speed=19.7x    frame=15802 fps=472 q=-0.0 size=N/A time=00:10:59.07 bitrate=N/A speed=19.7x    frame=16088 fps=473 q=-0.0 size=N/A time=00:11:11.00 bitrate=N/A speed=19.7x    frame=16357 fps=474 q=-0.0 size=N/A time=00:11:22.22 bitrate=N/A speed=19.7x    frame=16639 fps=475 q=-0.0 size=N/A time=00:11:33.98 bitrate=N/A speed=19.8x    frame=16901 fps=475 q=-0.0 size=N/A time=00:11:44.91 bitrate=N/A speed=19.8x    frame=17191 fps=476 q=-0.0 size=N/A time=00:11:57.00 bitrate=N/A speed=19.9x    frame=17467 fps=477 q=-0.0 size=N/A time=00:12:08.51 bitrate=N/A speed=19.9x    frame=17706 fps=477 q=-0.0 size=N/A time=00:12:18.48 bitrate=N/A speed=19.9x    frame=17918 fps=476 q=-0.0 size=N/A time=00:12:27.32 bitrate=N/A speed=19.9x    frame=18119 fps=475 q=-0.0 size=N/A time=00:12:35.71 bitrate=N/A speed=19.8x    frame=18402 fps=476 q=-0.0 size=N/A time=00:12:47.51 bitrate=N/A speed=19.9x    frame=18694 fps=477 q=-0.0 size=N/A time=00:12:59.69 bitrate=N/A speed=19.9x    frame=18931 fps=477 q=-0.0 size=N/A time=00:13:09.58 bitrate=N/A speed=19.9x    frame=19144 fps=476 q=-0.0 size=N/A time=00:13:18.46 bitrate=N/A speed=19.9x    frame=19374 fps=476 q=-0.0 size=N/A time=00:13:28.05 bitrate=N/A speed=19.8x    frame=19606 fps=475 q=-0.0 size=N/A time=00:13:37.73 bitrate=N/A speed=19.8x    frame=19852 fps=475 q=-0.0 size=N/A time=00:13:47.99 bitrate=N/A speed=19.8x    frame=20091 fps=475 q=-0.0 size=N/A time=00:13:57.96 bitrate=N/A speed=19.8x    frame=20364 fps=476 q=-0.0 size=N/A time=00:14:09.34 bitrate=N/A speed=19.9x    frame=20609 fps=476 q=-0.0 size=N/A time=00:14:19.56 bitrate=N/A speed=19.8x    frame=20883 fps=477 q=-0.0 size=N/A time=00:14:30.99 bitrate=N/A speed=19.9x    frame=21102 fps=476 q=-0.0 size=N/A time=00:14:40.12 bitrate=N/A speed=19.8x    frame=21351 fps=476 q=-0.0 size=N/A time=00:14:50.51 bitrate=N/A speed=19.9x    frame=21604 fps=476 q=-0.0 size=N/A time=00:15:01.06 bitrate=N/A speed=19.9x    frame=21830 fps=476 q=-0.0 size=N/A time=00:15:10.49 bitrate=N/A speed=19.8x    frame=22104 fps=476 q=-0.0 size=N/A time=00:15:21.92 bitrate=N/A speed=19.9x    frame=22382 fps=477 q=-0.0 size=N/A time=00:15:33.51 bitrate=N/A speed=19.9x    frame=22649 fps=477 q=-0.0 size=N/A time=00:15:44.65 bitrate=N/A speed=19.9x    frame=22929 fps=478 q=-0.0 size=N/A time=00:15:56.33 bitrate=N/A speed=19.9x    frame=23199 fps=479 q=-0.0 size=N/A time=00:16:07.59 bitrate=N/A speed=  20x    frame=23440 fps=479 q=-0.0 size=N/A time=00:16:17.64 bitrate=N/A speed=  20x    frame=23677 fps=478 q=-0.0 size=N/A time=00:16:27.52 bitrate=N/A speed=  20x    frame=23903 fps=478 q=-0.0 size=N/A time=00:16:36.95 bitrate=N/A speed=19.9x    frame=24139 fps=478 q=-0.0 size=N/A time=00:16:46.79 bitrate=N/A speed=19.9x    frame=24386 fps=478 q=-0.0 size=N/A time=00:16:57.09 bitrate=N/A speed=19.9x    frame=24638 fps=478 q=-0.0 size=N/A time=00:17:07.60 bitrate=N/A speed=19.9x    frame=24921 fps=479 q=-0.0 size=N/A time=00:17:19.41 bitrate=N/A speed=  20x    frame=25211 fps=479 q=-0.0 size=N/A time=00:17:31.50 bitrate=N/A speed=  20x    frame=25461 fps=479 q=-0.0 size=N/A time=00:17:41.93 bitrate=N/A speed=  20x    frame=25684 fps=479 q=-0.0 size=N/A time=00:17:51.23 bitrate=N/A speed=  20x    frame=25946 fps=479 q=-0.0 size=N/A time=00:18:02.16 bitrate=N/A speed=  20x    frame=26196 fps=479 q=-0.0 size=N/A time=00:18:12.59 bitrate=N/A speed=  20x    frame=26425 fps=479 q=-0.0 size=N/A time=00:18:22.14 bitrate=N/A speed=  20x    frame=26572 fps=477 q=-0.0 size=N/A time=00:18:28.27 bitrate=N/A speed=19.9x    frame=26824 fps=477 q=-0.0 size=N/A time=00:18:38.78 bitrate=N/A speed=19.9x    frame=27089 fps=478 q=-0.0 size=N/A time=00:18:49.83 bitrate=N/A speed=19.9x    frame=27356 fps=478 q=-0.0 size=N/A time=00:19:00.97 bitrate=N/A speed=19.9x    frame=27627 fps=478 q=-0.0 size=N/A time=00:19:12.27 bitrate=N/A speed=  20x    frame=27827 fps=478 q=-0.0 size=N/A time=00:19:20.61 bitrate=N/A speed=19.9x    frame=27994 fps=476 q=-0.0 size=N/A time=00:19:27.58 bitrate=N/A speed=19.9x    frame=28164 fps=475 q=-0.0 size=N/A time=00:19:34.67 bitrate=N/A speed=19.8x    frame=28366 fps=474 q=-0.0 size=N/A time=00:19:43.09 bitrate=N/A speed=19.8x    frame=28598 fps=474 q=-0.0 size=N/A time=00:19:52.77 bitrate=N/A speed=19.8x    frame=28818 fps=474 q=-0.0 size=N/A time=00:20:01.95 bitrate=N/A speed=19.8x    frame=29106 fps=474 q=-0.0 size=N/A time=00:20:13.96 bitrate=N/A speed=19.8x    frame=29382 fps=475 q=-0.0 size=N/A time=00:20:25.47 bitrate=N/A speed=19.8x    frame=29666 fps=476 q=-0.0 size=N/A time=00:20:37.31 bitrate=N/A speed=19.8x    frame=29957 fps=476 q=-0.0 size=N/A time=00:20:49.49 bitrate=N/A speed=19.9x    frame=30188 fps=476 q=-0.0 size=N/A time=00:20:59.09 bitrate=N/A speed=19.9x    frame=30463 fps=477 q=-0.0 size=N/A time=00:21:10.56 bitrate=N/A speed=19.9x    frame=30716 fps=477 q=-0.0 size=N/A time=00:21:21.11 bitrate=N/A speed=19.9x    frame=30968 fps=477 q=-0.0 size=N/A time=00:21:31.62 bitrate=N/A speed=19.9x    frame=31228 fps=477 q=-0.0 size=N/A time=00:21:42.46 bitrate=N/A speed=19.9x    frame=31486 fps=477 q=-0.0 size=N/A time=00:21:53.22 bitrate=N/A speed=19.9x    frame=31694 fps=477 q=-0.0 size=N/A time=00:22:01.90 bitrate=N/A speed=19.9x    frame=31890 fps=476 q=-0.0 size=N/A time=00:22:10.07 bitrate=N/A speed=19.8x    frame=32121 fps=476 q=-0.0 size=N/A time=00:22:19.71 bitrate=N/A speed=19.8x    frame=32312 fps=475 q=-0.0 size=N/A time=00:22:27.67 bitrate=N/A speed=19.8x    frame=32554 fps=475 q=-0.0 size=N/A time=00:22:37.77 bitrate=N/A speed=19.8x    frame=32748 fps=474 q=-0.0 size=N/A time=00:22:45.86 bitrate=N/A speed=19.8x    frame=32956 fps=473 q=-0.0 size=N/A time=00:22:54.53 bitrate=N/A speed=19.7x    frame=33193 fps=473 q=-0.0 size=N/A time=00:23:04.42 bitrate=N/A speed=19.7x    frame=33416 fps=473 q=-0.0 size=N/A time=00:23:13.72 bitrate=N/A speed=19.7x    frame=33605 fps=472 q=-0.0 size=N/A time=00:23:21.60 bitrate=N/A speed=19.7x    frame=33763 fps=471 q=-0.0 size=N/A time=00:23:28.19 bitrate=N/A speed=19.6x    frame=33953 fps=470 q=-0.0 size=N/A time=00:23:36.12 bitrate=N/A speed=19.6x    frame=34197 fps=470 q=-0.0 size=N/A time=00:23:46.29 bitrate=N/A speed=19.6x    frame=34443 fps=470 q=-0.0 size=N/A time=00:23:56.56 bitrate=N/A speed=19.6x    [Parsed_ssim_10 @ 00000217249a95c0] SSIM Y:0.995059 (23.061737) U:0.994013 (22.227654) V:0.993954 (22.185180) All:0.994700 (22.757506)
[out#0/null @ 0000021722094440] video:14800KiB audio:269396KiB subtitle:0KiB other streams:0KiB global headers:0KiB muxing overhead: unknown
frame=34444 fps=470 q=-0.0 Lsize=N/A time=00:23:56.60 bitrate=N/A speed=19.6x    
